<svg width="830" height="391" viewBox="0 0 830 391" fill="none" xmlns="http://www.w3.org/2000/svg">
<g filter="url(#filter0_d_47_993)">
<path d="M698.909 103.689H718.214V135.777H734.128V168.126H750.302V200.214H766.477V232.563H782.651V264.912H795.956V103.689H814.739V316.305H795.956V299.869H779.781V267.52H763.607V235.433H747.433V203.084H731.519V170.996H718.214V316.305H698.909V103.689Z" fill="black"/>
</g>
<path d="M23.7758 283.695H7.34053V135.777H23.7758V119.603H39.9502V103.689H91.0822V119.603H106.996V135.777H123.17V170.996H104.387V138.647H88.2125V122.473H42.559V138.647H26.6455V281.086H42.559V297H88.2125V281.086H104.387V232.563H123.17V283.695H106.996V299.869H91.0822V316.305H39.9502V299.869H23.7758V283.695ZM132.823 264.912H149.258V200.214H165.432V151.952H181.346V103.689H200.39V151.952H216.564V200.214H232.478V264.912H248.652V316.305H229.869V267.52H152.127V316.305H132.823V264.912ZM213.695 248.737V203.084H197.52V154.821H184.215V203.084H168.041V248.737H213.695ZM258.305 103.689H342.046V119.603H357.96V135.777H374.134V186.909H357.96V203.084H342.046V216.389H357.96V264.912H374.134V316.305H355.351V267.52H339.177V219.258H277.609V316.305H258.305V103.689ZM339.177 200.214V184.301H355.351V138.647H339.177V122.473H277.609V200.214H339.177ZM383.787 103.689H467.528V119.603H483.442V135.777H499.616V186.909H483.442V203.084H467.528V216.389H483.442V232.563H499.616V283.695H483.442V299.869H467.528V316.305H383.787V103.689ZM464.659 200.214V184.301H480.833V138.647H464.659V122.473H403.091V200.214H464.659ZM464.659 297V281.086H480.833V235.433H464.659V219.258H403.091V297H464.659Z" fill="black"/>
<rect x="600.111" y="88.0461" width="117.495" height="212.421" rx="58.7476" transform="rotate(28.4464 600.111 88.0461)" fill="#62D65C"/>
<rect x="618.727" y="155.005" width="17.9353" height="114.134" transform="rotate(28.5613 618.727 155.005)" fill="black"/>
<path d="M616.89 301.071L602.684 293.338L594.951 307.545L580.973 299.936L573.116 314.371L528.207 289.925L536.064 275.49L521.858 267.757L529.591 253.551L515.156 245.693L547.113 186.987L564.068 196.216L533.359 252.632L547.335 260.24L539.727 274.217L579.826 296.044L587.434 282.067L601.639 289.8L632.349 233.384L648.846 242.364L616.89 301.071ZM667.159 141.607L681.136 149.216L673.403 163.422L687.609 171.155L654.303 232.34L637.805 223.36L669.739 164.695L655.534 156.962L663.267 142.755L623.169 120.928L615.435 135.135L601.459 127.527L569.525 186.192L552.569 176.962L585.875 115.777L600.31 123.634L608.043 109.428L622.249 117.161L629.858 103.184L674.767 127.63L667.159 141.607Z" fill="black"/>
<defs>
<filter id="filter0_d_47_993" x="698.91" y="103.689" width="130.502" height="212.615" filterUnits="userSpaceOnUse" color-interpolation-filters="sRGB">
<feFlood flood-opacity="0" result="BackgroundImageFix"/>
<feColorMatrix in="SourceAlpha" type="matrix" values="0 0 0 0 0 0 0 0 0 0 0 0 0 0 0 0 0 0 127 0" result="hardAlpha"/>
<feOffset dx="14.6744"/>
<feComposite in2="hardAlpha" operator="out"/>
<feColorMatrix type="matrix" values="0 0 0 0 0.383773 0 0 0 0 0.837496 0 0 0 0 0.359893 0 0 0 1 0"/>
<feBlend mode="normal" in2="BackgroundImageFix" result="effect1_dropShadow_47_993"/>
<feBlend mode="normal" in="SourceGraphic" in2="effect1_dropShadow_47_993" result="shape"/>
</filter>
</defs>
</svg>
